<svg width="16" height="16" viewBox="0 0 16 16" fill="none" xmlns="http://www.w3.org/2000/svg">
<path fill-rule="evenodd" clip-rule="evenodd" d="M0.402279 9.04228C0.34291 8.93551 0.289472 8.82518 0.241964 8.71127C0.0806546 8.29471 0 7.86149 0 7.41161C0 6.96173 0.0806546 6.53267 0.241964 6.12445C0.412235 5.70789 0.658679 5.34548 0.981298 5.03723C1.31288 4.72065 1.71615 4.47071 2.19112 4.28743C2.67504 4.09581 3.23515 4 3.87142 4C4.49874 4 5.05436 4.09581 5.53828 4.28743C6.02221 4.47071 6.42548 4.72065 6.7481 5.03723C7.07968 5.34548 7.32613 5.70789 7.48744 6.12445C7.65771 6.53267 7.74284 6.96173 7.74284 7.41161C7.74284 7.86149 7.65771 8.29471 7.48744 8.71127C7.33501 9.09704 7.10654 9.44189 6.80205 9.74582C7.16437 9.77232 7.55675 9.78703 7.98145 9.78703C8.41557 9.78703 8.81565 9.77166 9.18414 9.74405C8.88803 9.44055 8.65967 9.09629 8.49909 8.71127C8.33778 8.29471 8.25713 7.86149 8.25713 7.41161C8.25713 6.96173 8.33778 6.53267 8.49909 6.12445C8.66936 5.70789 8.91579 5.34548 9.23843 5.03723C9.56999 4.72065 9.97328 4.47071 10.4482 4.28743C10.9322 4.09581 11.4923 4 12.1285 4C12.7559 4 13.3115 4.09581 13.7954 4.28743C14.2794 4.47071 14.6826 4.72065 15.0053 5.03723C15.3368 5.34548 15.5833 5.70789 15.7446 6.12445C15.9149 6.53267 16 6.96173 16 7.41161C16 7.86149 15.9149 8.29471 15.7446 8.71127C15.5908 9.10023 15.3599 9.44759 15.0516 9.75336C14.797 10.0365 14.4303 10.3637 13.9134 10.6793C12.7471 11.3915 10.8919 12 7.98145 12C5.07063 12 3.21003 11.3913 2.03832 10.6815C1.45573 10.3286 1.06179 9.96138 0.803634 9.65824C0.675137 9.50735 0.581605 9.37393 0.515652 9.26812C0.482691 9.21524 0.456647 9.16932 0.436573 9.13158C0.426537 9.11272 0.417991 9.0959 0.410818 9.08128C0.407232 9.07398 0.403989 9.06722 0.401073 9.06103L0.396944 9.05217L0.395061 9.04807L0.394163 9.04611C0.394078 9.04591 0.393991 9.04573 0.402279 9.04228ZM2.97078 8.44884C2.73778 8.19891 2.62127 7.85316 2.62127 7.41161C2.62127 6.97006 2.73778 6.62432 2.97078 6.37438C3.20378 6.12445 3.504 5.99948 3.87142 5.99948C4.23885 5.99948 4.53906 6.12445 4.77207 6.37438C5.00507 6.62432 5.12157 6.97006 5.12157 7.41161C5.12157 7.85316 5.00507 8.19891 4.77207 8.44884C4.53906 8.69878 4.23885 8.82374 3.87142 8.82374C3.504 8.82374 3.20378 8.69878 2.97078 8.44884ZM11.2279 8.44884C10.9949 8.19891 10.8784 7.85316 10.8784 7.41161C10.8784 6.97006 10.9949 6.62432 11.2279 6.37438C11.4609 6.12445 11.7611 5.99948 12.1285 5.99948C12.496 5.99948 12.7962 6.12445 13.0292 6.37438C13.2622 6.62432 13.3787 6.97006 13.3787 7.41161C13.3787 7.85316 13.2622 8.19891 13.0292 8.44884C12.7962 8.69878 12.496 8.82374 12.1285 8.82374C11.7611 8.82374 11.4609 8.69878 11.2279 8.44884Z" fill="url(#paint0_linear)"/>
<defs>
<linearGradient id="paint0_linear" x1="8" y1="4" x2="8" y2="12" gradientUnits="userSpaceOnUse">
<stop stop-color="#B7CFFF"/>
<stop offset="1" stop-color="#FFB7B7"/>
</linearGradient>
</defs>
</svg>
